<svg xmlns="http://www.w3.org/2000/svg" viewBox="0 0 600 400">
  <rect width="600" height="400" fill="#F3F4F6" rx="16"/>
  <g transform="translate(300,200)">
    <path d="M-80,60 L0,-80 L80,60 Z" fill="none" stroke="#38BDF8" stroke-width="1.5" opacity="0.3"/>
    <line x1="0" y1="-80" x2="0" y2="60" stroke="#38BDF8" stroke-width="0.8" opacity="0.15"/>
    <line x1="-80" y1="60" x2="80" y2="60" stroke="#38BDF8" stroke-width="0.8" opacity="0.15"/>
    <circle cx="-50" cy="-10" r="3" fill="#38BDF8" opacity="0.5"/>
    <circle cx="-25" cy="-30" r="3" fill="#38BDF8" opacity="0.4"/>
    <circle cx="0" cy="-50" r="3" fill="#38BDF8" opacity="0.6"/>
    <circle cx="25" cy="-20" r="3" fill="#38BDF8" opacity="0.4"/>
    <circle cx="50" cy="10" r="3" fill="#38BDF8" opacity="0.5"/>
    <path d="M-50,-10 L-25,-30 L0,-50 L25,-20 L50,10" fill="none" stroke="#38BDF8" stroke-width="1" opacity="0.3"/>
    <g transform="translate(0,75)">
      <rect x="-60" y="-4" width="120" height="8" rx="4" fill="#E5E7EB"/>
      <rect x="-40" y="-4" width="80" height="8" rx="4" fill="#38BDF8" opacity="0.3"/>
    </g>
    <g transform="translate(0,90)">
      <rect x="-50" y="-3" width="100" height="6" rx="3" fill="#E5E7EB"/>
      <rect x="-30" y="-3" width="60" height="6" rx="3" fill="#38BDF8" opacity="0.2"/>
    </g>
  </g>
</svg>
