<svg xmlns="http://www.w3.org/2000/svg" viewBox="0 0 400 300">
  <rect width="400" height="300" fill="#F3F4F6" rx="12"/>
  <g transform="translate(200,150)">
    <rect x="-160" y="-120" width="320" height="240" rx="8" fill="none" stroke="#E5E7EB" stroke-width="1"/>
    <g stroke="#E5E7EB" stroke-width="0.8" opacity="0.6">
      <line x1="-160" y1="-60" x2="160" y2="-60"/>
      <line x1="-160" y1="0" x2="160" y2="0"/>
      <line x1="-160" y1="60" x2="160" y2="60"/>
      <line x1="-80" y1="-120" x2="-80" y2="120"/>
      <line x1="80" y1="-120" x2="80" y2="120"/>
    </g>
    <circle cx="-30" cy="20" r="6" fill="#38BDF8"/>
    <circle cx="-30" cy="20" r="12" fill="#38BDF8" opacity="0.2"/>
    <circle cx="-30" cy="20" r="20" fill="#38BDF8" opacity="0.08"/>
    <rect x="-12" y="28" width="24" height="18" rx="3" fill="#0284C7" opacity="0.15"/>
    <text x="90" y="-90" text-anchor="middle" fill="#9CA3AF" font-family="system-ui" font-size="8">Innovation District</text>
    <g fill="#D1D5DB" opacity="0.4">
      <rect x="40" y="-40" width="20" height="15" rx="2"/>
      <rect x="70" y="-50" width="15" height="20" rx="2"/>
      <rect x="95" y="-40" width="18" height="15" rx="2"/>
      <rect x="-100" y="50" width="15" height="12" rx="2"/>
      <rect x="-80" y="55" width="20" height="10" rx="2"/>
    </g>
    <g transform="translate(-30,50)">
      <text x="0" y="0" text-anchor="middle" fill="#6B7280" font-family="system-ui" font-size="7">DeltaSim HQ</text>
    </g>
  </g>
</svg>