<svg xmlns="http://www.w3.org/2000/svg" viewBox="0 0 600 400">
  <rect width="600" height="400" fill="#F9FAFB" rx="16"/>
  <g transform="translate(300,200)">
    <rect x="-120" y="-120" width="240" height="240" rx="12" fill="none" stroke="#E5E7EB" stroke-width="1"/>
    <rect x="-100" y="-100" width="200" height="200" rx="8" fill="none" stroke="#D1D5DB" stroke-width="0.5"/>
    <rect x="-80" y="-80" width="160" height="160" rx="6" fill="none" stroke="#E5E7EB" stroke-width="0.5"/>
    <circle r="3" fill="#38BDF8" opacity="0.6"/>
    <g stroke="#38BDF8" stroke-width="0.8" fill="none" opacity="0.4">
      <path d="M-80-80 L-40-20 L0-50 L40-10 L80-40"/>
      <path d="M-80-40 L-30-60 L10-30 L60-70"/>
      <path d="M-70-90 L-20-30 L20-60 L70-20"/>
    </g>
    <g stroke="#0284C7" stroke-width="0.6" fill="none" opacity="0.25">
      <path d="M-90-70 L-10-40 L30-80 L90-50"/>
      <path d="M-60-100 L0-60 L50-90"/>
    </g>
    <g fill="#38BDF8" opacity="0.15">
      <circle cx="-60" cy="-50" r="30"/>
      <circle cx="40" cy="-70" r="20"/>
      <circle cx="-20" cy="-30" r="15"/>
    </g>
    <g transform="translate(0,60)">
      <rect x="-80" y="-6" width="160" height="12" rx="6" fill="#38BDF8" opacity="0.2"/>
      <rect x="-60" y="-6" width="120" height="12" rx="6" fill="#38BDF8" opacity="0.4"/>
      <rect x="-40" y="-6" width="80" height="12" rx="6" fill="#38BDF8" opacity="0.6"/>
    </g>
    <g transform="translate(-40,90)">
      <text x="0" y="0" text-anchor="middle" fill="#9CA3AF" font-family="monospace" font-size="9">FEA • CFD • CAD</text>
    </g>
    <g transform="translate(0,-140)">
      <circle cx="-30" cy="0" r="4" fill="#38BDF8"/>
      <circle cx="0" cy="0" r="4" fill="#38BDF8"/>
      <circle cx="30" cy="0" r="4" fill="#38BDF8"/>
      <line x1="-26" y1="0" x2="-4" y2="0" stroke="#38BDF8" stroke-width="1"/>
      <line x1="4" y1="0" x2="26" y2="0" stroke="#38BDF8" stroke-width="1"/>
    </g>
  </g>
</svg>