<svg xmlns="http://www.w3.org/2000/svg" viewBox="0 0 600 400">
  <rect width="600" height="400" fill="#F9FAFB" rx="16"/>
  <g transform="translate(300,190)">
    <circle cx="0" cy="-50" r="24" fill="#38BDF8" opacity="0.15"/>
    <circle cx="0" cy="-50" r="12" fill="#38BDF8" opacity="0.3"/>
    <circle cx="0" cy="-50" r="4" fill="#38BDF8"/>
    <circle cx="-70" cy="0" r="20" fill="#38BDF8" opacity="0.12"/>
    <circle cx="-70" cy="0" r="4" fill="#38BDF8"/>
    <circle cx="70" cy="0" r="20" fill="#38BDF8" opacity="0.12"/>
    <circle cx="70" cy="0" r="4" fill="#38BDF8"/>
    <circle cx="-45" cy="60" r="18" fill="#38BDF8" opacity="0.12"/>
    <circle cx="-45" cy="60" r="4" fill="#38BDF8"/>
    <circle cx="45" cy="60" r="18" fill="#38BDF8" opacity="0.12"/>
    <circle cx="45" cy="60" r="4" fill="#38BDF8"/>
    <g stroke="#38BDF8" stroke-width="1" opacity="0.3" fill="none">
      <line x1="0" y1="-38" x2="-58" y2="-8"/>
      <line x1="0" y1="-38" x2="58" y2="-8"/>
      <line x1="-58" y1="12" x2="-40" y2="48"/>
      <line x1="58" y1="12" x2="40" y2="48"/>
      <line x1="-8" y1="-38" x2="-8" y2="-60"/>
      <line x1="8" y1="-38" x2="8" y2="-60"/>
    </g>
    <g transform="translate(0,110)">
      <rect x="-70" y="-6" width="140" height="12" rx="6" fill="#E5E7EB"/>
      <rect x="-50" y="-6" width="100" height="12" rx="6" fill="#38BDF8" opacity="0.3"/>
    </g>
    <g transform="translate(0,130)">
      <text x="0" y="0" text-anchor="middle" fill="#9CA3AF" font-family="monospace" font-size="9">FEA • CFD • CAD • Simulation</text>
    </g>
  </g>
</svg>