<svg xmlns="http://www.w3.org/2000/svg" viewBox="0 0 400 280">
  <rect width="400" height="280" fill="#F9FAFB" rx="12"/>
  <g transform="translate(200,130)">
    <rect x="-50" y="-60" width="100" height="80" rx="6" fill="none" stroke="#38BDF8" stroke-width="1.5" opacity="0.3"/>
    <line x1="-30" y1="-35" x2="30" y2="-35" stroke="#38BDF8" stroke-width="1" opacity="0.2"/>
    <line x1="-30" y1="-15" x2="30" y2="-15" stroke="#38BDF8" stroke-width="1" opacity="0.2"/>
    <line x1="-20" y1="5" x2="20" y2="5" stroke="#38BDF8" stroke-width="1" opacity="0.2"/>
    <circle cx="-35" cy="-35" r="3" fill="#38BDF8" opacity="0.4"/>
    <circle cx="35" cy="-35" r="3" fill="#38BDF8" opacity="0.4"/>
    <circle cx="-35" cy="-15" r="3" fill="#38BDF8" opacity="0.4"/>
    <circle cx="35" cy="-15" r="3" fill="#38BDF8" opacity="0.4"/>
    <g transform="translate(0,40)" stroke="#38BDF8" stroke-width="0.8" opacity="0.2">
      <path d="M-60,0 L-40,-10 L-20,0 L0,-10 L20,0 L40,-10 L60,0" fill="none"/>
      <path d="M-60,10 L-40,0 L-20,10 L0,0 L20,10 L40,0 L60,10" fill="none"/>
    </g>
  </g>
</svg>
