<svg xmlns="http://www.w3.org/2000/svg" viewBox="0 0 600 400">
  <rect width="600" height="400" fill="#F3F4F6" rx="16"/>
  <g transform="translate(300,200)">
    <circle cx="-80" cy="-30" r="35" fill="none" stroke="#38BDF8" stroke-width="1.5" opacity="0.3"/>
    <circle cx="0" cy="-50" r="35" fill="none" stroke="#38BDF8" stroke-width="1.5" opacity="0.3"/>
    <circle cx="80" cy="-30" r="35" fill="none" stroke="#38BDF8" stroke-width="1.5" opacity="0.3"/>
    <line x1="-80" y1="5" x2="-80" y2="60" stroke="#38BDF8" stroke-width="1" opacity="0.2"/>
    <line x1="0" y1="-15" x2="0" y2="60" stroke="#38BDF8" stroke-width="1" opacity="0.2"/>
    <line x1="80" y1="5" x2="80" y2="60" stroke="#38BDF8" stroke-width="1" opacity="0.2"/>
    <rect x="-100" y="60" width="40" height="10" rx="3" fill="#38BDF8" opacity="0.1"/>
    <rect x="-20" y="60" width="40" height="10" rx="3" fill="#38BDF8" opacity="0.1"/>
    <rect x="60" y="60" width="40" height="10" rx="3" fill="#38BDF8" opacity="0.1"/>
    <circle cx="-80" cy="-30" r="20" fill="none" stroke="#38BDF8" stroke-width="0.8" opacity="0.15"/>
    <circle cx="0" cy="-50" r="20" fill="none" stroke="#38BDF8" stroke-width="0.8" opacity="0.15"/>
    <circle cx="80" cy="-30" r="20" fill="none" stroke="#38BDF8" stroke-width="0.8" opacity="0.15"/>
    <g stroke="#38BDF8" stroke-width="0.5" opacity="0.15">
      <path d="M-45,-40 Q-25,-55 0,-55" fill="none"/>
      <path d="M0,-55 Q25,-55 45,-40" fill="none"/>
      <path d="M-100,-30 Q-90,-50 -80,-50" fill="none"/>
      <path d="M80,-50 Q90,-50 100,-30" fill="none"/>
    </g>
  </g>
</svg>
