<svg xmlns="http://www.w3.org/2000/svg" viewBox="0 0 600 400">
  <rect width="600" height="400" fill="#F3F4F6" rx="16"/>
  <g transform="translate(300,200)">
    <rect x="-70" y="-90" width="140" height="100" rx="8" fill="none" stroke="#38BDF8" stroke-width="1.5" opacity="0.3"/>
    <line x1="-50" y1="-65" x2="50" y2="-65" stroke="#38BDF8" stroke-width="0.8" opacity="0.15"/>
    <line x1="-50" y1="-40" x2="50" y2="-40" stroke="#38BDF8" stroke-width="0.8" opacity="0.15"/>
    <line x1="-30" y1="-15" x2="30" y2="-15" stroke="#38BDF8" stroke-width="0.8" opacity="0.15"/>
    <circle cx="-40" cy="-65" r="3" fill="#38BDF8" opacity="0.4"/>
    <circle cx="40" cy="-65" r="3" fill="#38BDF8" opacity="0.4"/>
    <circle cx="-40" cy="-40" r="3" fill="#38BDF8" opacity="0.4"/>
    <circle cx="40" cy="-40" r="3" fill="#38BDF8" opacity="0.4"/>
    <circle cx="-20" cy="-15" r="3" fill="#38BDF8" opacity="0.4"/>
    <circle cx="20" cy="-15" r="3" fill="#38BDF8" opacity="0.4"/>
    <g transform="translate(0,30)">
      <rect x="-80" y="-4" width="160" height="8" rx="4" fill="#E5E7EB"/>
      <rect x="-60" y="-4" width="120" height="8" rx="4" fill="#38BDF8" opacity="0.3"/>
    </g>
    <g transform="translate(0,50)">
      <rect x="-70" y="-3" width="140" height="6" rx="3" fill="#E5E7EB"/>
      <rect x="-50" y="-3" width="100" height="6" rx="3" fill="#38BDF8" opacity="0.2"/>
    </g>
    <path d="M-90,70 Q-60,90 0,85 Q60,80 90,70" fill="none" stroke="#38BDF8" stroke-width="0.6" opacity="0.15"/>
    <path d="M-80,85 Q-40,100 0,98 Q40,96 80,85" fill="none" stroke="#38BDF8" stroke-width="0.5" opacity="0.1"/>
  </g>
</svg>
